<?xml version="1.0" encoding="iso-8859-1"?>
<!-- Generator: Adobe Illustrator 19.0.0, SVG Export Plug-In . SVG Version: 6.00 Build 0)  -->
<svg version="1.1" id="Layer_1" xmlns="http://www.w3.org/2000/svg" xmlns:xlink="http://www.w3.org/1999/xlink" x="0px" y="0px"
	 viewBox="0 0 511.999 511.999" style="enable-background:new 0 0 511.999 511.999;" xml:space="preserve">
<rect x="239.154" y="193.604" style="fill:#AFB6C7;" width="33.684" height="92.776"/>
<path style="fill:#707287;" d="M256,127.016L256,127.016c-18.703,0-33.865,15.162-33.865,33.865v32.72h67.73v-32.72
	C289.865,142.179,274.703,127.016,256,127.016z"/>
<g>
	<path style="fill:#C7CFE2;" d="M93.549,140.751c0,8.437-27.145,15.276-60.631,15.276s-33.485-30.551,0-30.551
		S93.549,132.315,93.549,140.751z"/>
	<path style="fill:#C7CFE2;" d="M93.549,140.751c0,8.437,27.145,15.276,60.631,15.276s33.485-30.551,0-30.551
		S93.549,132.315,93.549,140.751z"/>
	<path style="fill:#C7CFE2;" d="M418.451,140.751c0,8.437,27.145,15.276,60.631,15.276s33.485-30.551,0-30.551
		S418.451,132.315,418.451,140.751z"/>
	<path style="fill:#C7CFE2;" d="M418.451,140.751c0,8.437-27.145,15.276-60.631,15.276s-33.485-30.551,0-30.551
		S418.451,132.315,418.451,140.751z"/>
</g>
<path style="opacity:0.1;enable-background:new    ;" d="M48.711,155.5c25.825-1.751,44.838-7.689,44.838-14.749
	c0-6.546-16.347-12.128-39.314-14.302C50.269,135.294,48.637,145.393,48.711,155.5z"/>
<path style="opacity:0.1;enable-background:new    ;" d="M132.862,126.449c-22.967,2.173-39.314,7.756-39.314,14.302
	c0,7.059,19.013,12.998,44.838,14.749C138.459,145.393,136.829,135.294,132.862,126.449z"/>
<path style="opacity:0.1;enable-background:new    ;" d="M463.288,155.5c-25.825-1.751-44.838-7.689-44.838-14.749
	c0-6.546,16.347-12.128,39.314-14.302C461.73,135.294,463.362,145.393,463.288,155.5z"/>
<path style="opacity:0.1;enable-background:new    ;" d="M379.138,126.449c22.967,2.173,39.314,7.756,39.314,14.302
	c0,7.059-19.013,12.998-44.838,14.749C373.54,145.393,375.171,135.294,379.138,126.449z"/>
<g>
	<path style="fill:#707287;" d="M107.774,179.847c8.659-22.513,5.938-53.685-14.226-53.685s-22.884,31.172-14.226,53.685H107.774z"
		/>
	<path style="fill:#707287;" d="M404.226,179.847c-8.658-22.513-5.938-53.685,14.226-53.685s22.884,31.172,14.226,53.685H404.226z"
		/>
</g>
<g>
	
		<rect x="68.409" y="268.67" transform="matrix(-0.203 0.9792 -0.9792 -0.203 466.3636 194.159)" style="fill:#AFB6C7;" width="171.509" height="36.416"/>
	
		<rect x="272.09" y="268.661" transform="matrix(0.203 0.9792 -0.9792 0.203 566.0997 -121.7576)" style="fill:#AFB6C7;" width="171.509" height="36.416"/>
</g>
<polygon style="opacity:0.1;enable-background:new    ;" points="358.26,199.211 322.603,206.603 330.809,246.184 367.999,246.184 
	"/>
<rect x="239.154" y="193.604" style="opacity:0.1;enable-background:new    ;" width="33.684" height="52.584"/>
<polygon style="opacity:0.1;enable-background:new    ;" points="144.001,246.184 181.191,246.184 189.397,206.603 153.739,199.211 
	"/>
<path style="opacity:0.1;enable-background:new    ;" d="M289.865,160.881c0-7.422-2.395-14.282-6.443-19.863h-54.843
	c-4.049,5.581-6.443,12.44-6.443,19.863v32.72h67.73V160.881z"/>
<path style="fill:#C7CFE2;" d="M386.874,189.623c-0.054,0-0.107,0-0.161,0c-21.423,0-39.933-7.091-48.74-17.381
	c-2.895-3.382-7.21-5.213-11.662-5.213H185.688c-4.452,0-8.768,1.83-11.662,5.213c-8.807,10.291-27.318,17.381-48.74,17.381
	c-0.054,0-0.107,0-0.161,0c-8.421-0.015-15.301,6.695-15.301,15.116v0.157c0,8.436,6.839,15.275,15.275,15.275h261.799
	c8.436,0,15.275-6.839,15.275-15.275v-0.157C402.174,196.319,395.296,189.61,386.874,189.623z"/>
<path style="fill:#AFB6C7;" d="M97.416,163.281H89.68c-13.651,0-24.124,12.113-22.151,25.621l3.867,26.491
	c1.605,10.997,11.037,19.152,22.151,19.152s20.545-8.154,22.151-19.152l3.867-26.491
	C121.539,175.393,111.067,163.281,97.416,163.281z"/>
<rect x="209.179" y="263.594" style="fill:#5B5D6E;" width="93.639" height="93.639"/>
<circle style="fill:#2A2A33;" cx="255.999" cy="310.414" r="24.034"/>
<path style="fill:#C7CFE2;" d="M115.131,351.952l-0.93,4.485c-2.803,13.523,5.886,26.757,19.408,29.56
	c13.523,2.803,26.757-5.886,29.56-19.408l0.93-4.485L115.131,351.952z"/>
<path style="fill:#AFB6C7;" d="M414.583,163.281h7.736c13.651,0,24.124,12.113,22.151,25.621l-3.867,26.491
	c-1.605,10.997-11.037,19.152-22.151,19.152c-11.114,0-20.545-8.154-22.151-19.152l-3.867-26.491
	C390.46,175.393,400.933,163.281,414.583,163.281z"/>
<path style="fill:#C7CFE2;" d="M396.868,351.952l0.93,4.485c2.803,13.523-5.886,26.757-19.408,29.56
	c-13.523,2.803-26.757-5.886-29.56-19.408l-0.93-4.485L396.868,351.952z"/>
<path d="M224.164,310.622c0,17.554,14.282,31.835,31.836,31.835s31.835-14.281,31.835-31.835S273.554,278.786,256,278.786
	S224.164,293.068,224.164,310.622z M272.228,310.622c0,8.949-7.28,16.229-16.229,16.229c-8.95,0-16.23-7.28-16.23-16.229
	s7.28-16.23,16.23-16.23C264.948,294.393,272.228,301.673,272.228,310.622z"/>
<circle cx="255.999" cy="310.622" r="7.187"/>
<path d="M479.082,117.884c-17.783,0-34.397,1.87-46.543,5.179c-4.007-2.95-8.784-4.492-14.089-4.492
	c-5.304,0-10.082,1.542-14.087,4.492c-12.145-3.309-28.759-5.179-46.543-5.179c-22.616,0-32.918,11.964-32.918,23.079
	c0,11.116,10.301,23.079,32.918,23.079c12.241,0,24.061-0.897,34.244-2.565c0.112,1.265,0.256,2.542,0.434,3.832
	c-0.253,0.272-0.509,0.542-0.752,0.824c-3.912,4.525-6.346,10.05-7.099,15.858c-17.572-0.413-33.416-6.046-40.745-14.612
	c-4.32-5.047-10.731-7.942-17.591-7.942h-28.685c-0.873-22.211-19.205-40.013-41.627-40.013c-22.422,0-40.754,17.803-41.628,40.013
	h-28.685c-6.86,0-13.271,2.894-17.591,7.942c-7.323,8.557-23.141,14.187-40.746,14.611c-0.753-5.809-3.187-11.333-7.099-15.857
	c-0.243-0.282-0.498-0.552-0.752-0.824c0.178-1.29,0.321-2.567,0.434-3.832c10.183,1.668,22.004,2.565,34.245,2.565
	c22.616,0,32.917-11.964,32.917-23.079c0-11.116-10.3-23.079-32.917-23.079c-17.783,0-34.397,1.87-46.543,5.178
	c-4.007-2.95-8.784-4.492-14.089-4.492c-5.304,0-10.082,1.542-14.089,4.492c-12.145-3.309-28.759-5.179-46.543-5.179
	C10.3,117.884,0,129.848,0,140.963c0,11.116,10.3,23.079,32.917,23.079c12.241,0,24.062-0.897,34.245-2.565
	c0.112,1.265,0.256,2.542,0.434,3.832c-0.253,0.272-0.509,0.542-0.752,0.824c-5.739,6.638-8.303,15.424-7.035,24.107l3.867,26.491
	c2.148,14.724,14.991,25.828,29.872,25.828c10.945,0,20.782-6.011,26.077-15.048c1.784,0.437,3.621,0.676,5.475,0.676h14.707
	c0,0-14.311,69.033-14.369,69.315c-2.05,9.885,13.237,13.025,15.281,3.169l15.026-72.483h21.252l-25.608,123.525l-20.376-4.224
	c0,0,3.534-17.05,3.551-17.13c2.017-9.732-13.227-13.079-15.281-3.168c0,0-3.565,17.195-3.566,17.2
	c0.124-0.599-5.231,1.479-5.707,1.896c-2.485,2.17-2.817,5.742-3.448,8.78c-1.779,8.58-0.11,17.341,4.7,24.666
	c15.662,23.853,53.758,16.583,59.549-11.344c1.024-4.94,2.12-11.26-4.157-13.436l26.279-126.763h38.421V256h-22.175
	c-4.311,0-7.803,3.494-7.803,7.803v93.639c0,4.309,3.493,7.803,7.803,7.803h93.639c4.311,0,7.803-3.494,7.803-7.803v-93.639
	c0-4.309-3.493-7.803-7.803-7.803h-22.175v-27.811h38.42c0,0,26.241,126.576,26.279,126.762c-0.135-0.65-4.399,3.746-4.669,4.42
	c-2.962,7.358,3.675,19.276,8.456,24.487c21.769,23.726,62.905,3.025,56.308-28.79c-0.548-2.644-0.711-5.606-2.492-7.776
	c-0.601-0.733-6.817-3.637-6.663-2.899l-14.337-69.155c-0.875-4.22-5.004-6.93-9.224-6.056c-4.22,0.875-6.931,5.004-6.056,9.224
	l14.323,69.083l-20.376,4.224l-25.609-123.526h21.252l4.109,19.821c0.875,4.221,5.006,6.931,9.224,6.056
	c4.219-0.875,6.931-5.004,6.056-9.225l-3.452-16.653h14.707c1.855,0,3.691-0.239,5.476-0.676
	c5.296,9.036,15.132,15.048,26.076,15.048c14.881,0,27.723-11.104,29.872-25.828l3.868-26.491
	c1.268-8.682-1.296-17.469-7.035-24.107c-0.243-0.282-0.499-0.552-0.752-0.824c0.178-1.29,0.321-2.567,0.434-3.832
	c10.182,1.668,22.003,2.565,34.244,2.565c22.616,0,32.918-11.964,32.918-23.079C512,129.848,501.698,117.884,479.082,117.884z
	 M69.656,137.121c-0.96,2.736-1.651,5.583-2.096,8.448c-9.915,1.86-21.981,2.867-34.642,2.867c-11.809,0-17.311-4.459-17.311-7.472
	c0-3.013,5.502-7.472,17.311-7.472c13.607,0,26.673,1.195,36.849,3.297C69.727,136.897,69.695,137.012,69.656,137.121z
	 M82.566,152.271c0.282-5.241,1.11-11.165,4.717-15.304c1.669-1.919,3.611-2.788,6.264-2.788c2.652,0,4.595,0.869,6.263,2.786
	c3.599,4.136,4.435,10.023,4.719,15.306c0.074,1.382,0.097,2.807,0.059,4.27c-2.343-0.568-4.763-0.85-7.174-0.85H89.68
	c-0.635,0-7.185,0.375-7.174,0.85C82.47,155.078,82.492,153.652,82.566,152.271z M111.846,187.987
	c-1.289,8.831-2.578,17.661-3.868,26.493c-1.026,7.017-7.34,12.474-14.43,12.474c-7.187,0-13.391-5.363-14.43-12.476l-3.867-26.491
	c-0.612-4.194,0.627-8.439,3.399-11.645c2.727-3.154,6.861-5.045,11.032-5.045h7.736c4.177,0,8.299,1.885,11.032,5.045
	C111.218,179.548,112.457,183.792,111.846,187.987z M118.574,140.868c-0.324-1.263-0.7-2.513-1.132-3.743
	c-0.039-0.11-0.072-0.226-0.111-0.335c10.176-2.102,23.243-3.297,36.849-3.297c11.809,0,17.311,4.459,17.311,7.472
	c0,3.014-5.502,7.472-17.311,7.472c-12.661,0-24.727-1.008-34.642-2.867c-0.149-0.028-0.731-3.766-0.838-4.198
	C118.658,141.203,118.617,141.035,118.574,140.868z M138.712,378.866c-9.456-0.043-17.403-7.902-17.232-17.416
	c0,0,33.075,6.858,33.096,6.862c-0.255,1.65-3.89,5.142-5.071,6.297C146.561,377.491,142.915,378.885,138.712,378.866z
	 M390.518,361.45c0.062,3.426-0.903,6.79-2.825,9.717c-4.742,7.226-14.493,9.825-22.19,5.881c-1.074-0.55-8.979-8.549-8.08-8.737
	L390.518,361.45z M256,135.033c13.814,0,25.154,10.805,26.01,24.407h-52.021C230.845,145.837,242.184,135.033,256,135.033z
	 M295.016,271.605v78.033h-78.033v-78.033h22.175h33.684H295.016z M246.961,255.999v-27.811h18.078v27.811H246.961z
	 M124.038,212.508l2.171-14.873c22.739-0.202,43.271-7.867,53.746-20.106c1.35-1.578,3.441-2.484,5.734-2.484H326.31
	c2.293,0,4.383,0.905,5.734,2.482c10.475,12.24,31.007,19.905,53.746,20.106l2.172,14.873
	C387.625,212.556,124.374,212.556,124.038,212.508z M394.552,137.118c-0.479,1.36-0.874,2.743-1.218,4.144
	c-0.342,1.393-0.641,2.825-0.872,4.307c-9.915,1.859-21.98,2.867-34.642,2.867c-11.81,0-17.312-4.459-17.312-7.472
	c0-3.013,5.502-7.472,17.312-7.472c13.606,0,26.672,1.196,36.849,3.297C394.63,136.898,394.59,137.008,394.552,137.118z
	 M407.466,152.313c0.363-6.701,2.198-18.135,10.984-18.135c7.814,0,10.12,9.491,10.786,15.647c0.007,0.066,0.015,0.131,0.021,0.198
	c0.217,2.129,0.471,4.468,0.197,6.594c-2.196-0.831-4.698-0.907-7.023-0.924c-0.037,0-0.074-0.003-0.111-0.003h-7.736
	c-0.037,0-0.075,0.003-0.112,0.003c-2.393,0.009-4.686,0.578-7.025,0.792C407.27,155.136,407.393,153.676,407.466,152.313z
	 M436.748,187.986l-3.868,26.491c-1.038,7.112-7.242,12.476-14.43,12.476c-6.848,0-12.792-4.872-14.237-11.484
	c-0.006-0.035-0.007-0.071-0.015-0.106l-0.059-0.285c-0.042-0.199-0.088-0.396-0.119-0.6l-3.868-26.489
	c-0.612-4.194,0.627-8.438,3.399-11.645c2.723-3.148,6.868-5.045,11.032-5.045h7.736c4.149,0,8.316,1.905,11.031,5.045
	C436.122,179.548,437.36,183.793,436.748,187.986z M479.082,148.437c-12.661,0-24.727-1.008-34.641-2.867
	c-0.12-0.767-1.724-8.88-2.208-8.78c10.178-2.102,23.243-3.297,36.849-3.297c11.81,0,17.312,4.459,17.312,7.472
	C496.393,143.977,490.891,148.437,479.082,148.437z"/>
<g>
</g>
<g>
</g>
<g>
</g>
<g>
</g>
<g>
</g>
<g>
</g>
<g>
</g>
<g>
</g>
<g>
</g>
<g>
</g>
<g>
</g>
<g>
</g>
<g>
</g>
<g>
</g>
<g>
</g>
</svg>
